<svg xmlns="http://www.w3.org/2000/svg" width="504" height="504" viewBox="0 0 504 504">
  <path id="help_FILL1_wght500_GRAD0_opsz40" d="M254.664,398.976a26.818,26.818,0,0,0,19.73-8.022,26.786,26.786,0,0,0,0-38.232,26.818,26.818,0,0,0-19.73-8.022,27.138,27.138,0,0,0,0,54.276ZM231.84,307.7h41.932q0-17.273,4.322-30.224t24.674-30.831q17.88-15.423,26.2-30.52t8.333-34.857q0-33.3-22.2-53.033T257.742,108.5q-32.681,0-55.816,16.962a96.769,96.769,0,0,0-33.614,44.093l38.246,14.18a60.1,60.1,0,0,1,17.88-25.9q12.329-10.479,31.453-10.479t30.224,10.479a34.2,34.2,0,0,1,11.1,25.9,43.991,43.991,0,0,1-7.4,24.363q-7.4,11.412-20.973,22.513-20.973,17.88-28.981,32.992T231.84,307.7Zm22.2,197.345q-51.8,0-97.437-19.73A253.639,253.639,0,0,1,22.772,351.479q-19.73-45.632-19.73-97.437,0-52.426,19.73-98.058A251.05,251.05,0,0,1,76.738,76.427a257.222,257.222,0,0,1,79.868-53.655q45.632-19.73,97.437-19.73,52.426,0,98.058,19.73A251.372,251.372,0,0,1,485.312,155.984q19.73,45.632,19.73,98.058,0,51.8-19.73,97.437a257.223,257.223,0,0,1-53.655,79.868A251.05,251.05,0,0,1,352.1,485.312Q306.468,505.042,254.042,505.042Z" transform="translate(-2.042 -2.042)" fill="none" stroke="#fff" stroke-width="2" opacity="0.14"/>
</svg>
