<svg xmlns="http://www.w3.org/2000/svg" width="23.8" height="13.55" viewBox="0 0 23.8 13.55">
  <path id="key_FILL1_wght700_GRAD0_opsz24" d="M7,15a2.988,2.988,0,0,0,3-3A2.988,2.988,0,0,0,7,9a2.988,2.988,0,0,0-3,3,2.988,2.988,0,0,0,3,3Zm0,3.775a6.526,6.526,0,0,1-4.788-1.988A6.525,6.525,0,0,1,.225,12,6.534,6.534,0,0,1,2.2,7.2,6.534,6.534,0,0,1,7,5.225a6.625,6.625,0,0,1,3.938,1.237A6.146,6.146,0,0,1,13.3,9.625h8.3l2.425,2.325-4.05,4.2-2.4-2.2-2.25,2.25-1.8-1.825h-.2a6.377,6.377,0,0,1-2.475,3.212A6.709,6.709,0,0,1,7,18.775Z" transform="translate(-0.225 -5.225)" fill="#00af52"/>
</svg>
