<svg xmlns="http://www.w3.org/2000/svg" width="294.498" height="294.498" viewBox="0 0 294.498 294.498">
  <path id="help_FILL1_wght500_GRAD0_opsz40" d="M149.653,233.739a15.626,15.626,0,0,0,11.5-4.674,15.607,15.607,0,0,0,0-22.276,15.626,15.626,0,0,0-11.5-4.674,15.813,15.813,0,0,0,0,31.625Zm-13.3-53.185h24.432a55.693,55.693,0,0,1,2.518-17.611q2.518-7.546,14.377-17.964,10.418-8.986,15.265-17.783a41.372,41.372,0,0,0,4.855-20.31q0-19.4-12.936-30.9t-33.419-11.5q-19.042,0-32.522,9.883A56.384,56.384,0,0,0,99.34,100.064l22.285,8.262a35.02,35.02,0,0,1,10.418-15.092q7.184-6.106,18.326-6.106t17.611,6.106a19.926,19.926,0,0,1,6.468,15.092,25.632,25.632,0,0,1-4.312,14.2,58.438,58.438,0,0,1-12.22,13.117q-12.22,10.418-16.886,19.223T136.355,180.554ZM149.291,295.54a141.508,141.508,0,0,1-56.773-11.5,147.787,147.787,0,0,1-77.98-77.98,141.508,141.508,0,0,1-11.5-56.773,142.406,142.406,0,0,1,11.5-57.135A146.278,146.278,0,0,1,45.982,45.8,149.874,149.874,0,0,1,92.518,14.538a141.508,141.508,0,0,1,56.773-11.5,142.406,142.406,0,0,1,57.135,11.5,146.466,146.466,0,0,1,77.618,77.618,142.405,142.405,0,0,1,11.5,57.135,141.508,141.508,0,0,1-11.5,56.773A149.875,149.875,0,0,1,252.781,252.6a146.279,146.279,0,0,1-46.355,31.444A142.405,142.405,0,0,1,149.291,295.54Z" transform="translate(-2.042 -2.042)" fill="none" stroke="#fff" stroke-width="2" opacity="0.14"/>
</svg>
