<svg xmlns="http://www.w3.org/2000/svg" xmlns:xlink="http://www.w3.org/1999/xlink" width="40.744" height="8.706" viewBox="0 0 40.744 8.706">
  <defs>
    <clipPath id="clip-path">
      <path id="Path_56" data-name="Path 56" d="M34.043.48a7.568,7.568,0,0,0-6.4,3.541,7.56,7.56,0,0,0-12.806,0A7.564,7.564,0,0,0,.866,8.047V9.186H3.195V8.047a5.238,5.238,0,1,1,10.476,0V9.186H16V8.047a5.239,5.239,0,0,1,10.477,0V9.186h2.328V8.047A5.239,5.239,0,0,1,39.151,6.884H34.043v2.3H41.61V8.047A7.574,7.574,0,0,0,34.043.48Z" transform="translate(135.565 3.029)" fill="#fff"/>
    </clipPath>
  </defs>
  <g id="Mask_Group_8" data-name="Mask Group 8" transform="translate(-136.431 -3.509)" clip-path="url(#clip-path)">
    <path id="Path_55" data-name="Path 55" d="M34.043.48a7.568,7.568,0,0,0-6.4,3.541,7.56,7.56,0,0,0-12.806,0A7.564,7.564,0,0,0,.866,8.047V9.186H3.195V8.047a5.238,5.238,0,1,1,10.476,0V9.186H16V8.047a5.239,5.239,0,0,1,10.477,0V9.186h2.328V8.047A5.239,5.239,0,0,1,39.151,6.884H34.043v2.3H41.61V8.047A7.574,7.574,0,0,0,34.043.48Z" transform="translate(135.565 3.029)" fill="#fff"/>
    <rect id="Rectangle_80" data-name="Rectangle 80" width="42" height="12" transform="translate(73 1)" fill="#ec008c"/>
  </g>
</svg>
